<svg width="31" height="31" viewBox="0 0 36 36" fill="none" xmlns="http://www.w3.org/2000/svg">
<g clip-path="url(#clip0_226_521)">
<path d="M32.625 4.5H12.3168C11.3005 4.5 10.348 4.95044 9.70311 5.73816L0.253785 17.2881C-0.0845949 17.7023 -0.0845949 18.2977 0.253785 18.7119L9.70424 30.2629C10.348 31.0496 11.3005 31.5 12.3168 31.5H32.625C34.4861 31.5 36 29.9861 36 28.125V7.875C36 6.01392 34.4861 4.5 32.625 4.5V4.5ZM33.75 28.125C33.75 28.7457 33.2457 29.25 32.625 29.25H12.3168C11.9773 29.25 11.6598 29.0995 11.4456 28.838L2.57849 18L11.4445 7.16309C11.6598 6.90052 11.9773 6.75 12.3168 6.75H32.625C33.2457 6.75 33.75 7.25427 33.75 7.875V28.125L33.75 28.125Z" fill="#FF6464"/>
<path d="M25.0796 11.5796L20.25 16.4092L15.4204 11.5796L13.8296 13.1704L18.6592 18L13.8296 22.8296L15.4204 24.4204L20.25 19.5908L25.0796 24.4204L26.6704 22.8296L21.8408 18L26.6704 13.1704L25.0796 11.5796Z" fill="#FF6464"/>
</g>
<defs>
<clipPath id="clip0_226_521">
<rect width="36" height="36" fill="white"/>
</clipPath>
</defs>
</svg>
