<svg width="18" height="18" viewBox="0 0 18 18" fill="none" xmlns="http://www.w3.org/2000/svg">
<path d="M10.0606 9.00006L14.7803 4.28033C14.85 4.21069 14.9052 4.12801 14.9429 4.03702C14.9806 3.94602 15 3.84849 15 3.75C15 3.65151 14.9806 3.55398 14.9429 3.46299C14.9052 3.37199 14.85 3.28931 14.7803 3.21967C14.7107 3.15003 14.628 3.09478 14.537 3.05709C14.446 3.0194 14.3485 3 14.25 3C14.1515 3 14.054 3.0194 13.963 3.05709C13.872 3.09478 13.7893 3.15003 13.7197 3.21967L8.99994 7.9394L4.28021 3.21967C4.21057 3.15003 4.12789 3.09478 4.03689 3.05709C3.9459 3.0194 3.84837 3 3.74988 3C3.65139 3 3.55386 3.0194 3.46287 3.05709C3.37187 3.09478 3.28919 3.15003 3.21955 3.21967C3.1499 3.28931 3.09466 3.37199 3.05697 3.46299C3.01928 3.55398 2.99988 3.65151 2.99988 3.75C2.99988 3.84849 3.01928 3.94602 3.05697 4.03702C3.09466 4.12801 3.1499 4.21069 3.21955 4.28033L7.93928 9.00006L3.21955 13.7198C3.1499 13.7894 3.09466 13.8721 3.05697 13.9631C3.01928 14.0541 2.99988 14.1516 2.99988 14.2501C2.99988 14.3486 3.01928 14.4461 3.05697 14.5371C3.09466 14.6281 3.1499 14.7108 3.21955 14.7805C3.28919 14.8501 3.37187 14.9053 3.46287 14.943C3.55386 14.9807 3.65139 15.0001 3.74988 15.0001C3.84837 15.0001 3.9459 14.9807 4.03689 14.943C4.12789 14.9053 4.21057 14.8501 4.28021 14.7805L8.99994 10.0607L13.7197 14.7805C13.7893 14.8501 13.872 14.9053 13.963 14.943C14.054 14.9807 14.1515 15.0001 14.25 15.0001C14.3485 15.0001 14.446 14.9807 14.537 14.943C14.628 14.9053 14.7107 14.8501 14.7803 14.7805C14.85 14.7108 14.9052 14.6281 14.9429 14.5371C14.9806 14.4461 15 14.3486 15 14.2501C15 14.1516 14.9806 14.0541 14.9429 13.9631C14.9052 13.8721 14.85 13.7894 14.7803 13.7198L10.0606 9.00006Z" fill="#292D32"/>
</svg>
