<svg width="106" height="106" viewBox="0 0 106 106" fill="none" xmlns="http://www.w3.org/2000/svg">
<path d="M53.0007 8.83203C28.6648 8.83203 8.83398 28.6629 8.83398 52.9987C8.83398 77.3345 28.6648 97.1654 53.0007 97.1654C77.3365 97.1654 97.1673 77.3345 97.1673 52.9987C97.1673 28.6629 77.3365 8.83203 53.0007 8.83203ZM74.1123 42.8404L49.0698 67.8829C48.4515 68.5012 47.6123 68.8545 46.729 68.8545C45.8457 68.8545 45.0065 68.5012 44.3882 67.8829L31.889 55.3837C30.6082 54.1029 30.6082 51.9829 31.889 50.702C33.1698 49.4212 35.2898 49.4212 36.5707 50.702L46.729 60.8604L69.4307 38.1587C70.7115 36.8779 72.8315 36.8779 74.1123 38.1587C75.3932 39.4395 75.3932 41.5154 74.1123 42.8404Z" fill="#59C1BD"/>
</svg>
