<?xml version="1.0" encoding="UTF-8"?>
<svg xmlns="http://www.w3.org/2000/svg" id="Layer_1" data-name="Layer 1" viewBox="0 0 24 24">
  <path d="M21.747,2.562c-.05-.163-.179-.289-.343-.335-.177-.05-4.4-1.227-9.404-1.227S2.773,2.177,2.595,2.227c-.164,.046-.293,.174-.343,.337-.05,.166-1.226,4.129-1.226,9.436,0,5.353,1.176,9.273,1.226,9.438,.05,.163,.179,.289,.343,.335,.177,.05,4.401,1.227,9.405,1.227s9.227-1.177,9.404-1.227c.164-.046,.294-.173,.343-.337,.05-.167,1.227-4.129,1.227-9.437,0-5.353-1.177-9.273-1.227-9.438Zm-.883,18.319c-1.008,.256-4.709,1.119-8.864,1.119s-7.859-.863-8.865-1.119c-.26-.963-1.108-4.45-1.108-8.881,0-4.389,.85-7.911,1.109-8.881,1.008-.256,4.709-1.119,8.864-1.119s7.859,.863,8.864,1.119c.26,.962,1.109,4.45,1.109,8.881,0,4.389-.851,7.911-1.109,8.881Z"/>
  <path d="M16.641,8.591c-.245-.125-.548-.029-.673,.216-1.779,3.461-4.146,5.116-4.893,5.575-.597-.38-2.152-1.442-3.084-2.719-.162-.224-.475-.273-.698-.109-.223,.163-.272,.475-.109,.698,1.287,1.765,3.536,3.089,3.631,3.144,.078,.045,.165,.068,.252,.068,.077,0,.155-.018,.226-.054,.133-.067,3.278-1.698,5.564-6.146,.127-.246,.03-.547-.216-.673Z"/>
</svg>
