<svg width="36" height="36" viewBox="0 0 36 36" fill="none" xmlns="http://www.w3.org/2000/svg">
<path d="M20.1213 17.9999L29.5608 8.56043C29.7001 8.42114 29.8106 8.25578 29.8859 8.07379C29.9613 7.8918 30.0001 7.69674 30.0001 7.49976C30.0001 7.30278 29.9613 7.10772 29.8859 6.92573C29.8106 6.74375 29.7001 6.57839 29.5608 6.4391C29.4215 6.29981 29.2561 6.18932 29.0741 6.11394C28.8922 6.03855 28.6971 5.99976 28.5001 5.99976C28.3031 5.99976 28.1081 6.03855 27.9261 6.11394C27.7441 6.18932 27.5787 6.29981 27.4395 6.4391L18 15.8786L8.56055 6.4391C8.42126 6.29981 8.2559 6.18932 8.07391 6.11394C7.89192 6.03855 7.69687 5.99976 7.49988 5.99976C7.3029 5.99976 7.10785 6.03855 6.92586 6.11394C6.74387 6.18932 6.57851 6.29981 6.43922 6.4391C6.29993 6.57839 6.18944 6.74375 6.11406 6.92573C6.03868 7.10772 5.99988 7.30278 5.99988 7.49976C5.99988 7.69674 6.03868 7.8918 6.11406 8.07379C6.18944 8.25578 6.29993 8.42114 6.43922 8.56043L15.8787 17.9999L6.43922 27.4393C6.29993 27.5786 6.18944 27.744 6.11406 27.926C6.03868 28.108 5.99988 28.303 5.99988 28.5C5.99988 28.697 6.03868 28.892 6.11406 29.074C6.18944 29.256 6.29993 29.4214 6.43922 29.5607C6.57851 29.7 6.74387 29.8104 6.92586 29.8858C7.10785 29.9612 7.3029 30 7.49988 30C7.69687 30 7.89192 29.9612 8.07391 29.8858C8.2559 29.8104 8.42126 29.7 8.56055 29.5607L18 20.1212L27.4395 29.5607C27.5787 29.7 27.7441 29.8104 27.9261 29.8858C28.1081 29.9612 28.3031 30 28.5001 30C28.6971 30 28.8922 29.9612 29.0741 29.8858C29.2561 29.8104 29.4215 29.7 29.5608 29.5607C29.7001 29.4214 29.8106 29.256 29.8859 29.074C29.9613 28.892 30.0001 28.697 30.0001 28.5C30.0001 28.303 29.9613 28.108 29.8859 27.926C29.8106 27.744 29.7001 27.5786 29.5608 27.4393L20.1213 17.9999Z" fill="white"/>
</svg>
