<svg width="22" height="24" viewBox="0 0 22 24" fill="none" xmlns="http://www.w3.org/2000/svg">
<path d="M20.1654 7.54844C20.1654 8.20844 19.6704 8.74844 19.0654 8.74844H2.93203C2.32703 8.74844 1.83203 8.20844 1.83203 7.54844V7.53844C1.83203 5.24844 3.52786 3.39844 5.62703 3.39844H16.3612C18.4604 3.39844 20.1654 5.25844 20.1654 7.54844Z" fill="#7091F5"/>
<path d="M1.83203 11.45V16.46C1.83203 18.75 3.52786 20.6 5.62703 20.6H16.3612C18.4604 20.6 20.1654 18.74 20.1654 16.45V11.45C20.1654 10.79 19.6704 10.25 19.0654 10.25H2.93203C2.32703 10.25 1.83203 10.79 1.83203 11.45ZM7.33203 17.25H5.4987C5.12286 17.25 4.8112 16.91 4.8112 16.5C4.8112 16.09 5.12286 15.75 5.4987 15.75H7.33203C7.70786 15.75 8.01953 16.09 8.01953 16.5C8.01953 16.91 7.70786 17.25 7.33203 17.25ZM13.2904 17.25H9.6237C9.24786 17.25 8.9362 16.91 8.9362 16.5C8.9362 16.09 9.24786 15.75 9.6237 15.75H13.2904C13.6662 15.75 13.9779 16.09 13.9779 16.5C13.9779 16.91 13.6662 17.25 13.2904 17.25Z" fill="#7091F5"/>
</svg>
