<svg width="24" height="24" viewBox="0 0 24 24" fill="none" xmlns="http://www.w3.org/2000/svg">
<mask id="path-1-inside-1_8_91" fill="white">
<path d="M3 12.7308C3 11.0388 3 10.1928 3.35288 9.44909C3.70576 8.70544 4.36847 8.15485 5.6939 7.05369L6.97961 5.98552C9.3753 3.99517 10.5731 3 12 3C13.4268 3 14.6247 3.99517 17.0204 5.98552L18.3061 7.05369C19.6315 8.15485 20.2942 8.70544 20.6471 9.44909C21 10.1928 21 11.0388 21 12.7308V18.0152C21 20.3651 21 21.54 20.2468 22.27C19.4937 23 18.2815 23 15.8571 23H8.14286C5.71849 23 4.50631 23 3.75315 22.27C3 21.54 3 20.3651 3 18.0152V12.7308Z"/>
</mask>
<path d="M14.4143 23C14.4143 23.4418 14.7725 23.8 15.2143 23.8C15.6561 23.8 16.0143 23.4418 16.0143 23H14.4143ZM7.98571 23C7.98571 23.4418 8.34389 23.8 8.78571 23.8C9.22754 23.8 9.58571 23.4418 9.58571 23H7.98571ZM10.0714 16.3228H13.9286V14.7228H10.0714V16.3228ZM14.4143 16.769V23H16.0143V16.769H14.4143ZM7.98571 16.769V23H9.58571V16.769H7.98571ZM13.9286 16.3228C14.2205 16.3228 14.4143 16.5459 14.4143 16.769H16.0143C16.0143 15.6156 15.0568 14.7228 13.9286 14.7228V16.3228ZM10.0714 14.7228C8.94324 14.7228 7.98571 15.6156 7.98571 16.769H9.58571C9.58571 16.5459 9.77945 16.3228 10.0714 16.3228V14.7228ZM6.97961 5.98552L8.00206 7.2162L8.00206 7.2162L6.97961 5.98552ZM17.0204 5.98552L15.9979 7.2162L15.9979 7.2162L17.0204 5.98552ZM18.3061 7.05369L19.3286 5.82301L19.3286 5.823L18.3061 7.05369ZM5.6939 7.05369L4.67144 5.823L4.67144 5.823L5.6939 7.05369ZM19.4 12.7308V18.0152H22.6V12.7308H19.4ZM15.8571 21.4H8.14286V24.6H15.8571V21.4ZM4.6 18.0152V12.7308H1.4V18.0152H4.6ZM6.71635 8.28438L8.00206 7.2162L5.95715 4.75483L4.67144 5.823L6.71635 8.28438ZM15.9979 7.2162L17.2837 8.28438L19.3286 5.823L18.0428 4.75483L15.9979 7.2162ZM8.00206 7.2162C9.23127 6.19498 10.0417 5.52543 10.7158 5.09391C11.3513 4.68706 11.7056 4.6 12 4.6L12 1.4C10.8675 1.4 9.9095 1.81052 8.99048 2.39885C8.11 2.9625 7.12364 3.78571 5.95715 4.75483L8.00206 7.2162ZM18.0428 4.75483C16.8764 3.78571 15.89 2.9625 15.0095 2.39885C14.0905 1.81052 13.1325 1.4 12 1.4V4.6C12.2944 4.6 12.6487 4.68706 13.2842 5.09391C13.9583 5.52543 14.7687 6.19498 15.9979 7.2162L18.0428 4.75483ZM8.14286 21.4C6.8868 21.4 6.10083 21.3968 5.52806 21.3222C4.99633 21.2529 4.89476 21.1483 4.86673 21.1211L2.63957 23.4189C3.36471 24.1217 4.24581 24.3821 5.11455 24.4953C5.94225 24.6032 6.97455 24.6 8.14286 24.6V21.4ZM1.4 18.0152C1.4 19.1435 1.39639 20.1557 1.50932 20.9699C1.62936 21.8353 1.90746 22.7093 2.63957 23.4189L4.86673 21.1211C4.84569 21.1007 4.74722 21.0222 4.67897 20.5302C4.60361 19.9869 4.6 19.2367 4.6 18.0152H1.4ZM19.4 18.0152C19.4 19.2367 19.3964 19.9869 19.321 20.5302C19.2528 21.0222 19.1543 21.1007 19.1333 21.1211L21.3604 23.4189C22.0925 22.7093 22.3706 21.8353 22.4907 20.9699C22.6036 20.1557 22.6 19.1435 22.6 18.0152H19.4ZM15.8571 24.6C17.0254 24.6 18.0578 24.6032 18.8855 24.4953C19.7542 24.3821 20.6353 24.1217 21.3604 23.4189L19.1333 21.1211C19.1052 21.1483 19.0037 21.2529 18.4719 21.3222C17.8992 21.3968 17.1132 21.4 15.8571 21.4V24.6ZM22.6 12.7308C22.6 11.1885 22.636 9.90824 22.0926 8.76317L19.2016 10.135C19.364 10.4773 19.4 10.889 19.4 12.7308H22.6ZM17.2837 8.28438C18.725 9.48187 19.0358 9.78568 19.2016 10.135L22.0926 8.76317C21.5526 7.62519 20.538 6.82784 19.3286 5.82301L17.2837 8.28438ZM4.6 12.7308C4.6 10.889 4.63599 10.4773 4.79839 10.135L1.90736 8.76317C1.36401 9.90824 1.4 11.1885 1.4 12.7308H4.6ZM4.67144 5.823C3.46196 6.82784 2.44736 7.62519 1.90736 8.76317L4.79839 10.135C4.96416 9.78568 5.27498 9.48187 6.71635 8.28438L4.67144 5.823Z" fill="#696F8C" mask="url(#path-1-inside-1_8_91)"/>
</svg>
