<svg width="18" height="20" viewBox="0 0 18 20" fill="none" xmlns="http://www.w3.org/2000/svg">
<mask id="path-1-inside-1_12_78" fill="white">
<path d="M0 9.73081C0 8.03877 0 7.19275 0.352879 6.44909C0.705758 5.70544 1.36847 5.15485 2.6939 4.05369L3.97961 2.98552C6.3753 0.995172 7.57315 0 9 0C10.4268 0 11.6247 0.995172 14.0204 2.98552L15.3061 4.05369C16.6315 5.15485 17.2942 5.70544 17.6471 6.44909C18 7.19275 18 8.03877 18 9.73081V15.0152C18 17.3651 18 18.54 17.2468 19.27C16.4937 20 15.2815 20 12.8571 20H5.14286C2.71849 20 1.50631 20 0.753154 19.27C0 18.54 0 17.3651 0 15.0152V9.73081Z"/>
</mask>
<path d="M11.4143 20C11.4143 20.4418 11.7725 20.8 12.2143 20.8C12.6561 20.8 13.0143 20.4418 13.0143 20H11.4143ZM4.98571 20C4.98571 20.4418 5.34389 20.8 5.78571 20.8C6.22754 20.8 6.58571 20.4418 6.58571 20H4.98571ZM7.07143 13.3228H10.9286V11.7228H7.07143V13.3228ZM11.4143 13.769V20H13.0143V13.769H11.4143ZM4.98571 13.769V20H6.58571V13.769H4.98571ZM10.9286 13.3228C11.2205 13.3228 11.4143 13.5459 11.4143 13.769H13.0143C13.0143 12.6156 12.0568 11.7228 10.9286 11.7228V13.3228ZM7.07143 11.7228C5.94324 11.7228 4.98571 12.6156 4.98571 13.769H6.58571C6.58571 13.5459 6.77945 13.3228 7.07143 13.3228V11.7228ZM3.97961 2.98552L5.00206 4.2162L3.97961 2.98552ZM14.0204 2.98552L12.9979 4.2162L14.0204 2.98552ZM15.3061 4.05369L16.3286 2.82301V2.823L15.3061 4.05369ZM2.6939 4.05369L1.67144 2.823H1.67144L2.6939 4.05369ZM16.4 9.73081V15.0152H19.6V9.73081H16.4ZM12.8571 18.4H5.14286V21.6H12.8571V18.4ZM1.6 15.0152V9.73081H-1.6V15.0152H1.6ZM3.71635 5.28438L5.00206 4.2162L2.95715 1.75483L1.67144 2.823L3.71635 5.28438ZM12.9979 4.2162L14.2837 5.28438L16.3286 2.823L15.0428 1.75483L12.9979 4.2162ZM5.00206 4.2162C6.23127 3.19498 7.04169 2.52543 7.71576 2.09391C8.35131 1.68706 8.70563 1.6 9 1.6V-1.6C7.86752 -1.6 6.9095 -1.18948 5.99048 -0.601155C5.11 -0.0375024 4.12364 0.785712 2.95715 1.75483L5.00206 4.2162ZM15.0428 1.75483C13.8764 0.785712 12.89 -0.0375026 12.0095 -0.601155C11.0905 -1.18948 10.1325 -1.6 9 -1.6V1.6C9.29437 1.6 9.64869 1.68706 10.2842 2.09391C10.9583 2.52543 11.7687 3.19498 12.9979 4.2162L15.0428 1.75483ZM5.14286 18.4C3.8868 18.4 3.10083 18.3968 2.52806 18.3222C1.99633 18.2529 1.89476 18.1483 1.86673 18.1211L-0.360425 20.4189C0.364705 21.1217 1.24581 21.3821 2.11455 21.4953C2.94225 21.6032 3.97455 21.6 5.14286 21.6V18.4ZM-1.6 15.0152C-1.6 16.1435 -1.60361 17.1557 -1.49068 17.9699C-1.37064 18.8353 -1.09254 19.7093 -0.360425 20.4189L1.86673 18.1211C1.84569 18.1007 1.74722 18.0222 1.67897 17.5302C1.60361 16.9869 1.6 16.2367 1.6 15.0152H-1.6ZM16.4 15.0152C16.4 16.2367 16.3964 16.9869 16.321 17.5302C16.2528 18.0222 16.1543 18.1007 16.1333 18.1211L18.3604 20.4189C19.0925 19.7093 19.3706 18.8353 19.4907 17.9699C19.6036 17.1557 19.6 16.1435 19.6 15.0152H16.4ZM12.8571 21.6C14.0254 21.6 15.0578 21.6032 15.8855 21.4953C16.7542 21.3821 17.6353 21.1217 18.3604 20.4189L16.1333 18.1211C16.1052 18.1483 16.0037 18.2529 15.4719 18.3222C14.8992 18.3968 14.1132 18.4 12.8571 18.4V21.6ZM19.6 9.73081C19.6 8.1885 19.636 6.90824 19.0926 5.76317L16.2016 7.13502C16.364 7.47727 16.4 7.88905 16.4 9.73081H19.6ZM14.2837 5.28438C15.725 6.48186 16.0358 6.78568 16.2016 7.13502L19.0926 5.76317C18.5526 4.62519 17.538 3.82784 16.3286 2.82301L14.2837 5.28438ZM1.6 9.73081C1.6 7.88905 1.63599 7.47727 1.79839 7.13502L-1.09264 5.76317C-1.63599 6.90824 -1.6 8.1885 -1.6 9.73081H1.6ZM1.67144 2.823C0.461959 3.82784 -0.552643 4.62519 -1.09264 5.76317L1.79839 7.13502C1.96416 6.78568 2.27498 6.48187 3.71635 5.28438L1.67144 2.823Z" fill="#696F8C" mask="url(#path-1-inside-1_12_78)"/>
</svg>
