<svg width="63" height="63" viewBox="0 0 63 63" fill="none" xmlns="http://www.w3.org/2000/svg">
<path d="M6.77248 49.9012L6.71998 49.9537C6.01123 48.405 5.56498 46.6462 5.38123 44.7037C5.56498 46.62 6.06373 48.3525 6.77248 49.9012Z" fill="#607EAA" fill-opacity="0.3"/>
<path d="M23.6249 27.2474C27.0753 27.2474 29.8724 24.4503 29.8724 20.9999C29.8724 17.5495 27.0753 14.7524 23.6249 14.7524C20.1745 14.7524 17.3774 17.5495 17.3774 20.9999C17.3774 24.4503 20.1745 27.2474 23.6249 27.2474Z" fill="#607EAA" fill-opacity="0.3"/>
<path d="M42.4988 5.25H20.5013C10.9462 5.25 5.25 10.9462 5.25 20.5013V42.4988C5.25 45.36 5.74875 47.8538 6.72 49.9538C8.9775 54.9412 13.8075 57.75 20.5013 57.75H42.4988C52.0538 57.75 57.75 52.0538 57.75 42.4988V36.4875V20.5013C57.75 10.9462 52.0538 5.25 42.4988 5.25ZM53.4713 32.8125C51.4238 31.0537 48.1162 31.0537 46.0687 32.8125L35.1488 42.1838C33.1013 43.9425 29.7937 43.9425 27.7463 42.1838L26.8537 41.4487C24.99 39.8213 22.0238 39.6637 19.9237 41.0812L10.1062 47.67C9.52875 46.2 9.1875 44.4938 9.1875 42.4988V20.5013C9.1875 13.0988 13.0988 9.1875 20.5013 9.1875H42.4988C49.9013 9.1875 53.8125 13.0988 53.8125 20.5013V33.1012L53.4713 32.8125Z" fill="#607EAA" fill-opacity="0.3"/>
</svg>
