<svg width="24" height="24" viewBox="0 0 24 24" fill="none" xmlns="http://www.w3.org/2000/svg">
<path d="M9.82684 12.482L9.1612 12.0382L9.82684 12.482ZM5.77881 17.1118C5.53372 17.4794 5.63306 17.9761 6.00069 18.2212C6.36831 18.4663 6.865 18.3669 7.11009 17.9993L5.77881 17.1118ZM18.2212 9.11043C18.4663 8.7428 18.3669 8.24611 17.9993 8.00103C17.6317 7.75594 17.135 7.85528 16.8899 8.22291L18.2212 9.11043ZM14.1732 13.7403L14.8388 14.184L14.1732 13.7403ZM12.2549 13.6208L12.9704 13.2631L12.2549 13.6208ZM11.7451 12.6014L12.4607 12.2436L11.7451 12.6014ZM9.1612 12.0382L5.77881 17.1118L7.11009 17.9993L10.4925 12.9257L9.1612 12.0382ZM16.8899 8.22291L13.5075 13.2965L14.8388 14.184L18.2212 9.11043L16.8899 8.22291ZM12.9704 13.2631L12.4607 12.2436L11.0296 12.9592L11.5393 13.9786L12.9704 13.2631ZM13.5075 13.2965C13.375 13.4953 13.0772 13.4767 12.9704 13.2631L11.5393 13.9786C12.1956 15.2911 14.0248 15.405 14.8388 14.184L13.5075 13.2965ZM10.4925 12.9257C10.625 12.727 10.9228 12.7455 11.0296 12.9592L12.4607 12.2436C11.8044 10.9311 9.97516 10.8173 9.1612 12.0382L10.4925 12.9257ZM6.44444 2.8H17.5556V1.2H6.44444V2.8ZM21.2 6.44444V17.5556H22.8V6.44444H21.2ZM17.5556 21.2H6.44444V22.8H17.5556V21.2ZM2.8 17.5556V6.44444H1.2V17.5556H2.8ZM6.44444 21.2C5.37426 21.2 4.65211 21.1983 4.11266 21.1258C3.59623 21.0563 3.36858 20.9355 3.21656 20.7834L2.08519 21.9148C2.58404 22.4137 3.20561 22.6182 3.89946 22.7115C4.5703 22.8017 5.41949 22.8 6.44444 22.8V21.2ZM1.2 17.5556C1.2 18.5805 1.1983 19.4297 1.28849 20.1005C1.38178 20.7944 1.58634 21.416 2.08519 21.9148L3.21656 20.7834C3.06454 20.6314 2.94366 20.4038 2.87423 19.8873C2.8017 19.3479 2.8 18.6257 2.8 17.5556H1.2ZM21.2 17.5556C21.2 18.6257 21.1983 19.3479 21.1258 19.8873C21.0563 20.4038 20.9355 20.6314 20.7834 20.7834L21.9148 21.9148C22.4137 21.416 22.6182 20.7944 22.7115 20.1005C22.8017 19.4297 22.8 18.5805 22.8 17.5556H21.2ZM17.5556 22.8C18.5805 22.8 19.4297 22.8017 20.1005 22.7115C20.7944 22.6182 21.416 22.4137 21.9148 21.9148L20.7834 20.7834C20.6314 20.9355 20.4038 21.0563 19.8873 21.1258C19.3479 21.1983 18.6257 21.2 17.5556 21.2V22.8ZM17.5556 2.8C18.6257 2.8 19.3479 2.8017 19.8873 2.87423C20.4038 2.94366 20.6314 3.06454 20.7834 3.21656L21.9148 2.08519C21.416 1.58634 20.7944 1.38178 20.1005 1.28849C19.4297 1.1983 18.5805 1.2 17.5556 1.2V2.8ZM22.8 6.44444C22.8 5.41949 22.8017 4.5703 22.7115 3.89946C22.6182 3.20561 22.4137 2.58404 21.9148 2.08519L20.7834 3.21656C20.9355 3.36858 21.0563 3.59623 21.1258 4.11266C21.1983 4.65211 21.2 5.37426 21.2 6.44444H22.8ZM6.44444 1.2C5.41949 1.2 4.5703 1.1983 3.89946 1.28849C3.20561 1.38178 2.58404 1.58634 2.08519 2.08519L3.21656 3.21656C3.36858 3.06454 3.59623 2.94366 4.11266 2.87423C4.65211 2.8017 5.37426 2.8 6.44444 2.8V1.2ZM2.8 6.44444C2.8 5.37426 2.8017 4.65211 2.87423 4.11266C2.94366 3.59623 3.06454 3.36858 3.21656 3.21656L2.08519 2.08519C1.58634 2.58404 1.38178 3.20561 1.28849 3.89946C1.1983 4.5703 1.2 5.41949 1.2 6.44444H2.8Z" fill="#696F8C"/>
</svg>
