<svg width="24" height="22" viewBox="0 0 24 22" fill="none" xmlns="http://www.w3.org/2000/svg">
<path d="M11.2519 7.40625V10.0279L10.2419 9.70708C9.73187 9.54208 9.42188 9.38625 9.42188 8.58875C9.42188 7.93792 9.95188 7.40625 10.6019 7.40625H11.2519V7.40625Z" fill="#EFC784"/>
<path d="M14.58 13.4118C14.58 14.0627 14.05 14.5943 13.4 14.5943H12.75V11.9727L13.76 12.2935C14.27 12.4585 14.58 12.6143 14.58 13.4118Z" fill="#EFC784"/>
<path d="M16.19 1.83203H7.81C4.17 1.83203 2 3.8212 2 7.15786V14.8395C2 18.1762 4.17 20.1654 7.81 20.1654H16.19C19.83 20.1654 22 18.1762 22 14.8395V7.15786C22 3.8212 19.83 1.83203 16.19 1.83203ZM14.26 10.9987C15.04 11.2462 16.08 11.7687 16.08 13.4095C16.08 14.8212 14.88 15.967 13.4 15.967H12.75V16.4987C12.75 16.8745 12.41 17.1862 12 17.1862C11.59 17.1862 11.25 16.8745 11.25 16.4987V15.967H10.89C9.25 15.967 7.92 14.6929 7.92 13.1345C7.92 12.7587 8.25 12.447 8.67 12.447C9.08 12.447 9.42 12.7587 9.42 13.1345C9.42 13.9412 10.08 14.592 10.89 14.592H11.25V11.4845L9.74 10.9987C8.96 10.7512 7.92 10.2287 7.92 8.58786C7.92 7.1762 9.12 6.03036 10.6 6.03036H11.25V5.4987C11.25 5.12286 11.59 4.8112 12 4.8112C12.41 4.8112 12.75 5.12286 12.75 5.4987V6.03036H13.11C14.75 6.03036 16.08 7.30453 16.08 8.86286C16.08 9.2387 15.75 9.55036 15.33 9.55036C14.92 9.55036 14.58 9.2387 14.58 8.86286C14.58 8.0562 13.92 7.40536 13.11 7.40536H12.75V10.5129L14.26 10.9987Z" fill="#EFC784"/>
</svg>
