<svg width="68" height="68" viewBox="0 0 68 68" fill="none" xmlns="http://www.w3.org/2000/svg">
<path d="M34 2C51.7 2 66 16.3 66 34C66 51.7 51.7 66 34 66C16.3 66 2 51.7 2 34C2 16.3 16.3 2 34 2Z" fill="#3C79F5" stroke="white" stroke-width="4"/>
<path d="M17.9998 20.9005C15.0998 25.2005 18.5998 34.2005 26.0998 41.8005C33.5998 49.4005 42.6998 52.8005 46.9998 49.9005C47.1998 49.8005 47.2998 49.7005 47.3998 49.6005L50.2998 46.7005C51.1998 45.8005 51.0998 44.3005 50.0998 43.2005L44.9998 38.2005C43.9998 37.2005 42.3998 37.1005 41.4998 38.0005L38.0998 41.4005C37.7998 41.7005 37.1998 41.8005 36.7998 41.5005C34.8998 40.2005 33.0998 38.7005 31.2998 36.9005C29.4998 35.1005 27.9998 33.2005 26.6998 31.4005C26.3998 31.0005 26.3998 30.4005 26.7998 30.1005L30.1998 26.7005C31.0998 25.8005 30.9998 24.3005 29.9998 23.2005L24.7998 18.0005C23.7998 17.0005 22.1998 16.9005 21.2998 17.8005L18.3998 20.7005C18.1998 20.6005 18.0998 20.8005 17.9998 20.9005Z" fill="white"/>
</svg>
