<svg width="28" height="28" viewBox="0 0 28 28" fill="none" xmlns="http://www.w3.org/2000/svg">
<path d="M14.0007 2.33203C7.57232 2.33203 2.33398 7.57036 2.33398 13.9987C2.33398 20.427 7.57232 25.6654 14.0007 25.6654C20.429 25.6654 25.6673 20.427 25.6673 13.9987C25.6673 7.57036 20.429 2.33203 14.0007 2.33203ZM19.5773 11.3154L12.9623 17.9304C12.799 18.0937 12.5773 18.187 12.344 18.187C12.1107 18.187 11.889 18.0937 11.7257 17.9304L8.42398 14.6287C8.08565 14.2904 8.08565 13.7304 8.42398 13.392C8.76232 13.0537 9.32232 13.0537 9.66065 13.392L12.344 16.0754L18.3407 10.0787C18.679 9.74037 19.239 9.74037 19.5773 10.0787C19.9157 10.417 19.9157 10.9654 19.5773 11.3154Z" fill="#1942D8"/>
</svg>
